{
    "asset" : {
        "generator" : "Khronos glTF Blender I/O v3.2.43",
        "version" : "2.0"
    },
    "extensionsUsed" : [
        "KHR_materials_transmission"
    ],
    "scene" : 0,
    "scenes" : [
        {
            "name" : "Scene",
            "nodes" : [
                0,
                1,
                2,
                3,
                4,
                5,
                6,
                7,
                8,
                9,
                10,
                11,
                12
            ]
        }
    ],
    "nodes" : [
        {
            "mesh" : 0,
            "name" : "Curve",
            "scale" : [
                40,
                40,
                40
            ]
        },
        {
            "mesh" : 1,
            "name" : "Cube",
            "translation" : [
                0.30670416355133057,
                0.6940553784370422,
                -1.2072725296020508
            ]
        },
        {
            "mesh" : 2,
            "name" : "Cube.001",
            "translation" : [
                0.324398010969162,
                0.6940553784370422,
                1.3723961114883423
            ]
        },
        {
            "mesh" : 3,
            "name" : "Cube.002",
            "translation" : [
                -3.202577829360962,
                0.6940553784370422,
                -1.2286015748977661
            ]
        },
        {
            "mesh" : 4,
            "name" : "Cube.003",
            "translation" : [
                0.4069695472717285,
                0.6940553784370422,
                -1.2050098180770874
            ]
        },
        {
            "mesh" : 5,
            "name" : "Cube.004",
            "rotation" : [
                0,
                -0.7071068286895752,
                0,
                0.7071068286895752
            ],
            "translation" : [
                -1.5629467964172363,
                0.6940553784370422,
                -2.1545803546905518
            ]
        },
        {
            "mesh" : 6,
            "name" : "Cube.005",
            "translation" : [
                2.71012020111084,
                0.6940553784370422,
                -1.2050098180770874
            ]
        },
        {
            "mesh" : 7,
            "name" : "Cube.006",
            "translation" : [
                2.71012020111084,
                0.6940553784370422,
                -1.2050098180770874
            ]
        },
        {
            "mesh" : 8,
            "name" : "Cube.007",
            "translation" : [
                0.40991833806037903,
                0.6940553784370422,
                1.3723961114883423
            ]
        },
        {
            "mesh" : 9,
            "name" : "Cube.008",
            "translation" : [
                2.7101199626922607,
                0.6940553784370422,
                1.3723961114883423
            ]
        },
        {
            "mesh" : 10,
            "name" : "Cube.009",
            "rotation" : [
                0,
                -0.7071068286895752,
                0,
                0.7071068286895752
            ],
            "translation" : [
                -1.5629467964172363,
                0.6940553784370422,
                2.3431990146636963
            ]
        },
        {
            "mesh" : 11,
            "name" : "Cube.010",
            "translation" : [
                -4.53049373626709,
                0.6940553784370422,
                0.7354171276092529
            ]
        },
        {
            "mesh" : 12,
            "name" : "Cube.011",
            "scale" : [
                0.2962254583835602,
                0.8978603482246399,
                0.8978603482246399
            ],
            "translation" : [
                0.4234127402305603,
                0.6940553784370422,
                1.3723961114883423
            ]
        }
    ],
    "materials" : [
        {
            "doubleSided" : true,
            "name" : "SVGMat",
            "pbrMetallicRoughness" : {
                "baseColorFactor" : [
                    1,
                    1,
                    1,
                    1
                ],
                "metallicFactor" : 0,
                "roughnessFactor" : 0.7051643133163452
            }
        },
        {
            "doubleSided" : true,
            "name" : "Material.001",
            "pbrMetallicRoughness" : {
                "baseColorFactor" : [
                    0.0016552262241020799,
                    0.020015785470604897,
                    0.02365095354616642,
                    1
                ],
                "metallicFactor" : 0.44041451811790466,
                "roughnessFactor" : 0.12694299221038818
            }
        },
        {
            "doubleSided" : true,
            "emissiveFactor" : [
                1,
                1,
                1
            ],
            "extensions" : {
                "KHR_materials_transmission" : {
                    "transmissionFactor" : 0.6683937907218933
                }
            },
            "name" : "Material.003",
            "pbrMetallicRoughness" : {
                "baseColorFactor" : [
                    0.8000000715255737,
                    0.0006379731930792332,
                    0,
                    1
                ],
                "metallicFactor" : 0,
                "roughnessFactor" : 0.5
            }
        }
    ],
    "meshes" : [
        {
            "name" : "Curve",
            "primitives" : [
                {
                    "attributes" : {
                        "POSITION" : 0,
                        "NORMAL" : 1,
                        "TEXCOORD_0" : 2
                    },
                    "indices" : 3,
                    "material" : 0
                }
            ]
        },
        {
            "name" : "Cube.001",
            "primitives" : [
                {
                    "attributes" : {
                        "POSITION" : 4,
                        "NORMAL" : 5,
                        "TEXCOORD_0" : 6
                    },
                    "indices" : 7,
                    "material" : 1
                }
            ]
        },
        {
            "name" : "Cube.002",
            "primitives" : [
                {
                    "attributes" : {
                        "POSITION" : 8,
                        "NORMAL" : 9,
                        "TEXCOORD_0" : 10
                    },
                    "indices" : 7,
                    "material" : 1
                }
            ]
        },
        {
            "name" : "Cube.003",
            "primitives" : [
                {
                    "attributes" : {
                        "POSITION" : 11,
                        "NORMAL" : 12,
                        "TEXCOORD_0" : 13
                    },
                    "indices" : 7,
                    "material" : 1
                }
            ]
        },
        {
            "name" : "Cube.004",
            "primitives" : [
                {
                    "attributes" : {
                        "POSITION" : 14,
                        "NORMAL" : 15,
                        "TEXCOORD_0" : 16
                    },
                    "indices" : 7,
                    "material" : 1
                }
            ]
        },
        {
            "name" : "Cube.005",
            "primitives" : [
                {
                    "attributes" : {
                        "POSITION" : 17,
                        "NORMAL" : 18,
                        "TEXCOORD_0" : 19
                    },
                    "indices" : 7,
                    "material" : 1
                }
            ]
        },
        {
            "name" : "Cube.006",
            "primitives" : [
                {
                    "attributes" : {
                        "POSITION" : 20,
                        "NORMAL" : 21,
                        "TEXCOORD_0" : 22
                    },
                    "indices" : 7,
                    "material" : 1
                }
            ]
        },
        {
            "name" : "Cube.007",
            "primitives" : [
                {
                    "attributes" : {
                        "POSITION" : 23,
                        "NORMAL" : 24,
                        "TEXCOORD_0" : 25
                    },
                    "indices" : 7,
                    "material" : 1
                }
            ]
        },
        {
            "name" : "Cube.008",
            "primitives" : [
                {
                    "attributes" : {
                        "POSITION" : 26,
                        "NORMAL" : 27,
                        "TEXCOORD_0" : 28
                    },
                    "indices" : 7,
                    "material" : 1
                }
            ]
        },
        {
            "name" : "Cube.009",
            "primitives" : [
                {
                    "attributes" : {
                        "POSITION" : 29,
                        "NORMAL" : 30,
                        "TEXCOORD_0" : 31
                    },
                    "indices" : 7,
                    "material" : 1
                }
            ]
        },
        {
            "name" : "Cube.010",
            "primitives" : [
                {
                    "attributes" : {
                        "POSITION" : 32,
                        "NORMAL" : 33,
                        "TEXCOORD_0" : 34
                    },
                    "indices" : 7,
                    "material" : 1
                }
            ]
        },
        {
            "name" : "Cube.011",
            "primitives" : [
                {
                    "attributes" : {
                        "POSITION" : 35,
                        "NORMAL" : 36,
                        "TEXCOORD_0" : 37
                    },
                    "indices" : 7,
                    "material" : 1
                }
            ]
        },
        {
            "name" : "Cube.012",
            "primitives" : [
                {
                    "attributes" : {
                        "POSITION" : 38,
                        "NORMAL" : 39,
                        "TEXCOORD_0" : 40
                    },
                    "indices" : 7,
                    "material" : 2
                }
            ]
        }
    ],
    "accessors" : [
        {
            "bufferView" : 0,
            "componentType" : 5126,
            "count" : 74,
            "max" : [
                0.070005863904953,
                0,
                0.06089629605412483
            ],
            "min" : [
                -0.11535020172595978,
                0,
                -0.055983494967222214
            ],
            "type" : "VEC3"
        },
        {
            "bufferView" : 1,
            "componentType" : 5126,
            "count" : 74,
            "type" : "VEC3"
        },
        {
            "bufferView" : 2,
            "componentType" : 5126,
            "count" : 74,
            "type" : "VEC2"
        },
        {
            "bufferView" : 3,
            "componentType" : 5123,
            "count" : 150,
            "type" : "SCALAR"
        },
        {
            "bufferView" : 4,
            "componentType" : 5126,
            "count" : 24,
            "max" : [
                0.01245570182800293,
                0.29200947284698486,
                0.5132293701171875
            ],
            "min" : [
                -0.01245570182800293,
                -0.29200947284698486,
                -0.5132293701171875
            ],
            "type" : "VEC3"
        },
        {
            "bufferView" : 5,
            "componentType" : 5126,
            "count" : 24,
            "type" : "VEC3"
        },
        {
            "bufferView" : 6,
            "componentType" : 5126,
            "count" : 24,
            "type" : "VEC2"
        },
        {
            "bufferView" : 7,
            "componentType" : 5123,
            "count" : 36,
            "type" : "SCALAR"
        },
        {
            "bufferView" : 8,
            "componentType" : 5126,
            "count" : 24,
            "max" : [
                0.01245570182800293,
                0.29200947284698486,
                0.5132293701171875
            ],
            "min" : [
                -0.01245570182800293,
                -0.29200947284698486,
                -0.5132293701171875
            ],
            "type" : "VEC3"
        },
        {
            "bufferView" : 9,
            "componentType" : 5126,
            "count" : 24,
            "type" : "VEC3"
        },
        {
            "bufferView" : 10,
            "componentType" : 5126,
            "count" : 24,
            "type" : "VEC2"
        },
        {
            "bufferView" : 11,
            "componentType" : 5126,
            "count" : 24,
            "max" : [
                0.01245570182800293,
                0.29200947284698486,
                0.5132293701171875
            ],
            "min" : [
                -0.01245570182800293,
                -0.29200947284698486,
                -0.5132293701171875
            ],
            "type" : "VEC3"
        },
        {
            "bufferView" : 12,
            "componentType" : 5126,
            "count" : 24,
            "type" : "VEC3"
        },
        {
            "bufferView" : 13,
            "componentType" : 5126,
            "count" : 24,
            "type" : "VEC2"
        },
        {
            "bufferView" : 14,
            "componentType" : 5126,
            "count" : 24,
            "max" : [
                0.01245570182800293,
                0.29200947284698486,
                0.5132293701171875
            ],
            "min" : [
                -0.01245570182800293,
                -0.29200947284698486,
                -0.5132293701171875
            ],
            "type" : "VEC3"
        },
        {
            "bufferView" : 15,
            "componentType" : 5126,
            "count" : 24,
            "type" : "VEC3"
        },
        {
            "bufferView" : 16,
            "componentType" : 5126,
            "count" : 24,
            "type" : "VEC2"
        },
        {
            "bufferView" : 17,
            "componentType" : 5126,
            "count" : 24,
            "max" : [
                0.01245570182800293,
                0.29200947284698486,
                0.5132293701171875
            ],
            "min" : [
                -0.01245570182800293,
                -0.29200947284698486,
                -0.5132293701171875
            ],
            "type" : "VEC3"
        },
        {
            "bufferView" : 18,
            "componentType" : 5126,
            "count" : 24,
            "type" : "VEC3"
        },
        {
            "bufferView" : 19,
            "componentType" : 5126,
            "count" : 24,
            "type" : "VEC2"
        },
        {
            "bufferView" : 20,
            "componentType" : 5126,
            "count" : 24,
            "max" : [
                0.01245570182800293,
                0.29200947284698486,
                0.5132293701171875
            ],
            "min" : [
                -0.01245570182800293,
                -0.29200947284698486,
                -0.5132293701171875
            ],
            "type" : "VEC3"
        },
        {
            "bufferView" : 21,
            "componentType" : 5126,
            "count" : 24,
            "type" : "VEC3"
        },
        {
            "bufferView" : 22,
            "componentType" : 5126,
            "count" : 24,
            "type" : "VEC2"
        },
        {
            "bufferView" : 23,
            "componentType" : 5126,
            "count" : 24,
            "max" : [
                0.01245570182800293,
                0.29200947284698486,
                0.5132293701171875
            ],
            "min" : [
                -0.01245570182800293,
                -0.29200947284698486,
                -0.5132293701171875
            ],
            "type" : "VEC3"
        },
        {
            "bufferView" : 24,
            "componentType" : 5126,
            "count" : 24,
            "type" : "VEC3"
        },
        {
            "bufferView" : 25,
            "componentType" : 5126,
            "count" : 24,
            "type" : "VEC2"
        },
        {
            "bufferView" : 26,
            "componentType" : 5126,
            "count" : 24,
            "max" : [
                0.01245570182800293,
                0.29200947284698486,
                0.5132293701171875
            ],
            "min" : [
                -0.01245570182800293,
                -0.29200947284698486,
                -0.5132293701171875
            ],
            "type" : "VEC3"
        },
        {
            "bufferView" : 27,
            "componentType" : 5126,
            "count" : 24,
            "type" : "VEC3"
        },
        {
            "bufferView" : 28,
            "componentType" : 5126,
            "count" : 24,
            "type" : "VEC2"
        },
        {
            "bufferView" : 29,
            "componentType" : 5126,
            "count" : 24,
            "max" : [
                0.01245570182800293,
                0.29200947284698486,
                0.5132293701171875
            ],
            "min" : [
                -0.01245570182800293,
                -0.29200947284698486,
                -0.5132293701171875
            ],
            "type" : "VEC3"
        },
        {
            "bufferView" : 30,
            "componentType" : 5126,
            "count" : 24,
            "type" : "VEC3"
        },
        {
            "bufferView" : 31,
            "componentType" : 5126,
            "count" : 24,
            "type" : "VEC2"
        },
        {
            "bufferView" : 32,
            "componentType" : 5126,
            "count" : 24,
            "max" : [
                0.01245570182800293,
                0.29200947284698486,
                0.5132293701171875
            ],
            "min" : [
                -0.01245570182800293,
                -0.29200947284698486,
                -0.5132293701171875
            ],
            "type" : "VEC3"
        },
        {
            "bufferView" : 33,
            "componentType" : 5126,
            "count" : 24,
            "type" : "VEC3"
        },
        {
            "bufferView" : 34,
            "componentType" : 5126,
            "count" : 24,
            "type" : "VEC2"
        },
        {
            "bufferView" : 35,
            "componentType" : 5126,
            "count" : 24,
            "max" : [
                0.01245570182800293,
                0.29200947284698486,
                0.5132293701171875
            ],
            "min" : [
                -0.01245570182800293,
                -0.29200947284698486,
                -0.5132293701171875
            ],
            "type" : "VEC3"
        },
        {
            "bufferView" : 36,
            "componentType" : 5126,
            "count" : 24,
            "type" : "VEC3"
        },
        {
            "bufferView" : 37,
            "componentType" : 5126,
            "count" : 24,
            "type" : "VEC2"
        },
        {
            "bufferView" : 38,
            "componentType" : 5126,
            "count" : 24,
            "max" : [
                0.01245570182800293,
                0.29200947284698486,
                0.5132293701171875
            ],
            "min" : [
                -0.01245570182800293,
                -0.29200947284698486,
                -0.5132293701171875
            ],
            "type" : "VEC3"
        },
        {
            "bufferView" : 39,
            "componentType" : 5126,
            "count" : 24,
            "type" : "VEC3"
        },
        {
            "bufferView" : 40,
            "componentType" : 5126,
            "count" : 24,
            "type" : "VEC2"
        }
    ],
    "bufferViews" : [
        {
            "buffer" : 0,
            "byteLength" : 888,
            "byteOffset" : 0
        },
        {
            "buffer" : 0,
            "byteLength" : 888,
            "byteOffset" : 888
        },
        {
            "buffer" : 0,
            "byteLength" : 592,
            "byteOffset" : 1776
        },
        {
            "buffer" : 0,
            "byteLength" : 300,
            "byteOffset" : 2368
        },
        {
            "buffer" : 0,
            "byteLength" : 288,
            "byteOffset" : 2668
        },
        {
            "buffer" : 0,
            "byteLength" : 288,
            "byteOffset" : 2956
        },
        {
            "buffer" : 0,
            "byteLength" : 192,
            "byteOffset" : 3244
        },
        {
            "buffer" : 0,
            "byteLength" : 72,
            "byteOffset" : 3436
        },
        {
            "buffer" : 0,
            "byteLength" : 288,
            "byteOffset" : 3508
        },
        {
            "buffer" : 0,
            "byteLength" : 288,
            "byteOffset" : 3796
        },
        {
            "buffer" : 0,
            "byteLength" : 192,
            "byteOffset" : 4084
        },
        {
            "buffer" : 0,
            "byteLength" : 288,
            "byteOffset" : 4276
        },
        {
            "buffer" : 0,
            "byteLength" : 288,
            "byteOffset" : 4564
        },
        {
            "buffer" : 0,
            "byteLength" : 192,
            "byteOffset" : 4852
        },
        {
            "buffer" : 0,
            "byteLength" : 288,
            "byteOffset" : 5044
        },
        {
            "buffer" : 0,
            "byteLength" : 288,
            "byteOffset" : 5332
        },
        {
            "buffer" : 0,
            "byteLength" : 192,
            "byteOffset" : 5620
        },
        {
            "buffer" : 0,
            "byteLength" : 288,
            "byteOffset" : 5812
        },
        {
            "buffer" : 0,
            "byteLength" : 288,
            "byteOffset" : 6100
        },
        {
            "buffer" : 0,
            "byteLength" : 192,
            "byteOffset" : 6388
        },
        {
            "buffer" : 0,
            "byteLength" : 288,
            "byteOffset" : 6580
        },
        {
            "buffer" : 0,
            "byteLength" : 288,
            "byteOffset" : 6868
        },
        {
            "buffer" : 0,
            "byteLength" : 192,
            "byteOffset" : 7156
        },
        {
            "buffer" : 0,
            "byteLength" : 288,
            "byteOffset" : 7348
        },
        {
            "buffer" : 0,
            "byteLength" : 288,
            "byteOffset" : 7636
        },
        {
            "buffer" : 0,
            "byteLength" : 192,
            "byteOffset" : 7924
        },
        {
            "buffer" : 0,
            "byteLength" : 288,
            "byteOffset" : 8116
        },
        {
            "buffer" : 0,
            "byteLength" : 288,
            "byteOffset" : 8404
        },
        {
            "buffer" : 0,
            "byteLength" : 192,
            "byteOffset" : 8692
        },
        {
            "buffer" : 0,
            "byteLength" : 288,
            "byteOffset" : 8884
        },
        {
            "buffer" : 0,
            "byteLength" : 288,
            "byteOffset" : 9172
        },
        {
            "buffer" : 0,
            "byteLength" : 192,
            "byteOffset" : 9460
        },
        {
            "buffer" : 0,
            "byteLength" : 288,
            "byteOffset" : 9652
        },
        {
            "buffer" : 0,
            "byteLength" : 288,
            "byteOffset" : 9940
        },
        {
            "buffer" : 0,
            "byteLength" : 192,
            "byteOffset" : 10228
        },
        {
            "buffer" : 0,
            "byteLength" : 288,
            "byteOffset" : 10420
        },
        {
            "buffer" : 0,
            "byteLength" : 288,
            "byteOffset" : 10708
        },
        {
            "buffer" : 0,
            "byteLength" : 192,
            "byteOffset" : 10996
        },
        {
            "buffer" : 0,
            "byteLength" : 288,
            "byteOffset" : 11188
        },
        {
            "buffer" : 0,
            "byteLength" : 288,
            "byteOffset" : 11476
        },
        {
            "buffer" : 0,
            "byteLength" : 192,
            "byteOffset" : 11764
        }
    ],
    "buffers" : [
        {
            "byteLength" : 11956,
            "uri" : "data:application/octet-stream;base64,"
        }
    ]
}
